<svg width="76" height="77" viewBox="0 0 76 77" fill="none" xmlns="http://www.w3.org/2000/svg">
<path opacity="0.06" d="M55.044 0.65625H21.2681C9.72043 0.65625 0.359192 10.0175 0.359192 21.5652V55.3411C0.359192 66.8888 9.72043 76.25 21.2681 76.25H55.044C66.5917 76.25 75.9529 66.8888 75.9529 55.3411V21.5652C75.9529 10.0175 66.5917 0.65625 55.044 0.65625Z" fill="#FF6F35"/>
<path d="M38.1561 64.1937C52.3722 64.1937 63.8965 52.6693 63.8965 38.4533C63.8965 24.2372 52.3722 12.7129 38.1561 12.7129C23.9401 12.7129 12.4157 24.2372 12.4157 38.4533C12.4157 52.6693 23.9401 64.1937 38.1561 64.1937Z" fill="#FFCD1D"/>
<path d="M38.1561 22.2354V54.671" stroke="white" stroke-width="2.41257" stroke-linecap="round" stroke-linejoin="round"/>
<path d="M45.5278 28.1328H34.4702C33.1017 28.1328 31.7891 28.6764 30.8214 29.6442C29.8536 30.6119 29.31 31.9244 29.31 33.293C29.31 34.6615 29.8536 35.9741 30.8214 36.9418C31.7891 37.9095 33.1017 38.4532 34.4702 38.4532H41.8419C43.2105 38.4532 44.523 38.9968 45.4908 39.9646C46.4585 40.9323 47.0022 42.2448 47.0022 43.6134C47.0022 44.982 46.4585 46.2945 45.4908 47.2622C44.523 48.23 43.2105 48.7736 41.8419 48.7736H29.31" stroke="white" stroke-width="2.41257" stroke-linecap="round" stroke-linejoin="round"/>
</svg>
