<svg width="77" height="77" viewBox="0 0 77 77" fill="none" xmlns="http://www.w3.org/2000/svg">
<path opacity="0.06" d="M55.4034 0.65625H21.6275C10.0798 0.65625 0.718563 10.0175 0.718563 21.5652V55.3411C0.718563 66.8888 10.0798 76.25 21.6275 76.25H55.4034C66.9511 76.25 76.3123 66.8888 76.3123 55.3411V21.5652C76.3123 10.0175 66.9511 0.65625 55.4034 0.65625Z" fill="#0089FF"/>
<path d="M38.5155 64.1937C52.7316 64.1937 64.2559 52.6693 64.2559 38.4533C64.2559 24.2372 52.7316 12.7129 38.5155 12.7129C24.2995 12.7129 12.7751 24.2372 12.7751 38.4533C12.7751 52.6693 24.2995 64.1937 38.5155 64.1937Z" fill="#1B76FF"/>
<path fill-rule="evenodd" clip-rule="evenodd" d="M25.1056 33.3594H29.7514V51.5205H25.1056C24.4061 51.5205 23.839 50.9804 23.839 50.3142V34.5657C23.839 33.8995 24.4061 33.3594 25.1056 33.3594Z" stroke="white" stroke-width="1.60838" stroke-linecap="round" stroke-linejoin="round"/>
<path fill-rule="evenodd" clip-rule="evenodd" d="M51.7794 48.1202C51.4853 50.3837 49.973 51.5204 47.2846 51.5204H33.217C31.3056 51.5204 29.7514 50.0575 29.7514 48.2586V33.381C34.2126 32.9461 36.4432 31.3887 36.4432 27.2009V25.194C36.4432 23.0788 38.2437 21.364 40.4647 21.364C41.3111 21.364 42.1359 21.6183 42.8217 22.0908C43.7669 22.7431 44.3691 23.9787 44.3691 25.7578V31.567C44.3691 32.0612 45.2056 32.4664 46.0422 32.4664H50.5296C52.42 32.4664 53.9533 33.8897 53.9953 35.659C54.0233 36.8385 53.2847 40.4896 51.7794 48.1202Z" stroke="white" stroke-width="1.60838" stroke-linecap="round" stroke-linejoin="round"/>
</svg>
