<svg width="76" height="77" viewBox="0 0 76 77" fill="none" xmlns="http://www.w3.org/2000/svg">
<g clip-path="url(#clip0_1_192)">
<path opacity="0.06" d="M55.044 0.515625H21.2681C9.72043 0.515625 0.359192 9.87687 0.359192 21.4245V55.2005C0.359192 66.7481 9.72043 76.1094 21.2681 76.1094H55.044C66.5917 76.1094 75.9529 66.7481 75.9529 55.2005V21.4245C75.9529 9.87687 66.5917 0.515625 55.044 0.515625Z" fill="#5CC97B"/>
<path d="M38.1561 64.0531C52.3722 64.0531 63.8965 52.5287 63.8965 38.3127C63.8965 24.0966 52.3722 12.5723 38.1561 12.5723C23.9401 12.5723 12.4157 24.0966 12.4157 38.3127C12.4157 52.5287 23.9401 64.0531 38.1561 64.0531Z" fill="#5CC97B"/>
<path fill-rule="evenodd" clip-rule="evenodd" d="M40.9131 44.6854C39.07 45.9042 36.8403 46.5751 34.4645 46.477C28.4554 46.2288 23.785 41.1558 24.0331 35.1464C24.2813 29.1369 29.3541 24.4673 35.3633 24.7155C41.3714 24.9636 46.0429 30.0357 45.7947 36.0452C45.7072 38.1635 45.0201 40.1154 43.9038 41.7442L51.2404 48.8677C52.1456 49.8491 52.1132 51.3662 51.1832 52.3062L51.1404 52.3455L51.0952 52.3847C50.0843 53.2341 48.5697 53.1431 47.6653 52.1609L40.9131 44.6854ZM34.5682 43.9653C29.946 43.7744 26.3532 39.872 26.5441 35.2497C26.735 30.6275 30.6374 27.0347 35.2596 27.2256C39.8818 27.4165 43.4747 31.3189 43.2838 35.9411C43.0929 40.5633 39.1905 44.1561 34.5682 43.9653Z" fill="white"/>
</g>
<defs>
<clipPath id="clip0_1_192">
<rect width="75.5938" height="75.5938" fill="white" transform="translate(0.359192 0.515625)"/>
</clipPath>
</defs>
</svg>
