<svg width="119" height="19" viewBox="0 0 119 19" fill="none" xmlns="http://www.w3.org/2000/svg">
<path fill-rule="evenodd" clip-rule="evenodd" d="M9.95724 14.1489L4.1896 17.9282L6.00167 11.275L0.625 6.95752L7.51256 6.62493L9.95724 0.177246L12.4019 6.62493L19.2895 6.95752L13.9128 11.275L15.7249 17.9282L9.95724 14.1489Z" fill="#FFC54F"/>
<g clip-path="url(#clip0_38_4)">
<path fill-rule="evenodd" clip-rule="evenodd" d="M34.5822 14.1489L28.8146 17.9282L30.6267 11.275L25.25 6.95752L32.1376 6.62493L34.5822 0.177246L37.0269 6.62493L43.9145 6.95752L38.5378 11.275L40.3499 17.9282L34.5822 14.1489Z" fill="#FFC54F"/>
</g>
<g clip-path="url(#clip1_38_4)">
<path fill-rule="evenodd" clip-rule="evenodd" d="M59.2072 14.1489L53.4396 17.9282L55.2517 11.275L49.875 6.95752L56.7626 6.62493L59.2072 0.177246L61.6519 6.62493L68.5395 6.95752L63.1628 11.275L64.9749 17.9282L59.2072 14.1489Z" fill="#FFC54F"/>
</g>
<g clip-path="url(#clip2_38_4)">
<path fill-rule="evenodd" clip-rule="evenodd" d="M83.8322 14.1489L78.0646 17.9282L79.8766 11.275L74.5 6.95752L81.3875 6.62493L83.8322 0.177246L86.2769 6.62493L93.1645 6.95752L87.7878 11.275L89.5999 17.9282L83.8322 14.1489Z" fill="#FFC54F"/>
</g>
<g clip-path="url(#clip3_38_4)">
<path fill-rule="evenodd" clip-rule="evenodd" d="M108.457 14.1489L102.69 17.9282L104.502 11.275L99.125 6.95752L106.013 6.62493L108.457 0.177246L110.902 6.62493L117.789 6.95752L112.413 11.275L114.225 17.9282L108.457 14.1489Z" fill="#FFC54F"/>
</g>
<defs>
<clipPath id="clip0_38_4">
<rect width="19.625" height="17.9896" fill="white" transform="translate(24.7697 0.177246)"/>
</clipPath>
<clipPath id="clip1_38_4">
<rect width="19.625" height="17.9896" fill="white" transform="translate(49.3947 0.177246)"/>
</clipPath>
<clipPath id="clip2_38_4">
<rect width="19.625" height="17.9896" fill="white" transform="translate(74.0197 0.177246)"/>
</clipPath>
<clipPath id="clip3_38_4">
<rect width="19.625" height="17.9896" fill="white" transform="translate(98.6447 0.177246)"/>
</clipPath>
</defs>
</svg>
