<svg width="14" height="13" viewBox="0 0 14 13" fill="none" xmlns="http://www.w3.org/2000/svg">
<path d="M12.5508 3.59375C13.0977 3.18359 13.5898 2.69141 13.9727 2.11719C13.4805 2.33594 12.9062 2.5 12.332 2.55469C12.9336 2.19922 13.3711 1.65234 13.5898 0.96875C13.043 1.29688 12.4141 1.54297 11.7852 1.67969C11.2383 1.10547 10.5 0.777344 9.67969 0.777344C8.09375 0.777344 6.80859 2.0625 6.80859 3.64844C6.80859 3.86719 6.83594 4.08594 6.89062 4.30469C4.51172 4.16797 2.37891 3.01953 0.957031 1.29688C0.710938 1.70703 0.574219 2.19922 0.574219 2.74609C0.574219 3.73047 1.06641 4.60547 1.85938 5.125C1.39453 5.09766 0.929688 4.98828 0.546875 4.76953V4.79688C0.546875 6.19141 1.53125 7.33984 2.84375 7.61328C2.625 7.66797 2.35156 7.72266 2.10547 7.72266C1.91406 7.72266 1.75 7.69531 1.55859 7.66797C1.91406 8.81641 2.98047 9.63672 4.23828 9.66406C3.25391 10.4297 2.02344 10.8945 0.683594 10.8945C0.4375 10.8945 0.21875 10.8672 0 10.8398C1.25781 11.6602 2.76172 12.125 4.40234 12.125C9.67969 12.125 12.5508 7.77734 12.5508 3.97656C12.5508 3.83984 12.5508 3.73047 12.5508 3.59375Z" fill="#81818B" fill-opacity="0.9"/>
</svg>
