<svg width="14" height="13" viewBox="0 0 14 13" fill="none" xmlns="http://www.w3.org/2000/svg">
<path d="M3.60938 12.6875V4.51172H1.06641V12.6875H3.60938ZM2.32422 3.41797C3.14453 3.41797 3.80078 2.73438 3.80078 1.91406C3.80078 1.12109 3.14453 0.464844 2.32422 0.464844C1.53125 0.464844 0.875 1.12109 0.875 1.91406C0.875 2.73438 1.53125 3.41797 2.32422 3.41797ZM13.0977 12.6875H13.125V8.20312C13.125 6.01562 12.6328 4.32031 10.0625 4.32031C8.83203 4.32031 8.01172 5.00391 7.65625 5.63281H7.62891V4.51172H5.19531V12.6875H7.73828V8.64062C7.73828 7.57422 7.92969 6.5625 9.24219 6.5625C10.5547 6.5625 10.582 7.76562 10.582 8.72266V12.6875H13.0977Z" fill="#81818B" fill-opacity="0.9"/>
</svg>
