<svg width="16" height="11" viewBox="0 0 16 11" fill="none" xmlns="http://www.w3.org/2000/svg">
<path d="M15.1367 1.85547C14.9727 1.19922 14.4531 0.679688 13.8242 0.515625C12.6484 0.1875 8 0.1875 8 0.1875C8 0.1875 3.32422 0.1875 2.14844 0.515625C1.51953 0.679688 1 1.19922 0.835938 1.85547C0.507812 3.00391 0.507812 5.46484 0.507812 5.46484C0.507812 5.46484 0.507812 7.89844 0.835938 9.07422C1 9.73047 1.51953 10.2227 2.14844 10.3867C3.32422 10.6875 8 10.6875 8 10.6875C8 10.6875 12.6484 10.6875 13.8242 10.3867C14.4531 10.2227 14.9727 9.73047 15.1367 9.07422C15.4648 7.89844 15.4648 5.46484 15.4648 5.46484C15.4648 5.46484 15.4648 3.00391 15.1367 1.85547ZM6.46875 7.67969V3.25L10.3516 5.46484L6.46875 7.67969Z" fill="#81818B" fill-opacity="0.9"/>
</svg>
