<svg width="13" height="12" viewBox="0 0 13 12" fill="none" xmlns="http://www.w3.org/2000/svg">
<path d="M6.5625 2.89258C4.9375 2.89258 3.64258 4.21289 3.64258 5.8125C3.64258 7.4375 4.9375 8.73242 6.5625 8.73242C8.16211 8.73242 9.48242 7.4375 9.48242 5.8125C9.48242 4.21289 8.16211 2.89258 6.5625 2.89258ZM6.5625 7.7168C5.52148 7.7168 4.6582 6.87891 4.6582 5.8125C4.6582 4.77148 5.49609 3.93359 6.5625 3.93359C7.60352 3.93359 8.44141 4.77148 8.44141 5.8125C8.44141 6.87891 7.60352 7.7168 6.5625 7.7168ZM10.2695 2.79102C10.2695 2.41016 9.96484 2.10547 9.58398 2.10547C9.20312 2.10547 8.89844 2.41016 8.89844 2.79102C8.89844 3.17188 9.20312 3.47656 9.58398 3.47656C9.96484 3.47656 10.2695 3.17188 10.2695 2.79102ZM12.1992 3.47656C12.1484 2.5625 11.9453 1.75 11.2852 1.08984C10.625 0.429688 9.8125 0.226562 8.89844 0.175781C7.95898 0.125 5.14062 0.125 4.20117 0.175781C3.28711 0.226562 2.5 0.429688 1.81445 1.08984C1.1543 1.75 0.951172 2.5625 0.900391 3.47656C0.849609 4.41602 0.849609 7.23438 0.900391 8.17383C0.951172 9.08789 1.1543 9.875 1.81445 10.5605C2.5 11.2207 3.28711 11.4238 4.20117 11.4746C5.14062 11.5254 7.95898 11.5254 8.89844 11.4746C9.8125 11.4238 10.625 11.2207 11.2852 10.5605C11.9453 9.875 12.1484 9.08789 12.1992 8.17383C12.25 7.23438 12.25 4.41602 12.1992 3.47656ZM10.9805 9.16406C10.8027 9.67188 10.3965 10.0527 9.91406 10.2559C9.15234 10.5605 7.375 10.4844 6.5625 10.4844C5.72461 10.4844 3.94727 10.5605 3.21094 10.2559C2.70312 10.0527 2.32227 9.67188 2.11914 9.16406C1.81445 8.42773 1.89062 6.65039 1.89062 5.8125C1.89062 5 1.81445 3.22266 2.11914 2.46094C2.32227 1.97852 2.70312 1.59766 3.21094 1.39453C3.94727 1.08984 5.72461 1.16602 6.5625 1.16602C7.375 1.16602 9.15234 1.08984 9.91406 1.39453C10.3965 1.57227 10.7773 1.97852 10.9805 2.46094C11.2852 3.22266 11.209 5 11.209 5.8125C11.209 6.65039 11.2852 8.42773 10.9805 9.16406Z" fill="#81818B" fill-opacity="0.9"/>
</svg>
