<svg width="137" height="33" viewBox="0 0 137 33" fill="none" xmlns="http://www.w3.org/2000/svg">
<path d="M50.6049 12.2804C50.2583 11.6418 49.7565 11.1584 49.0997 10.83C48.4611 10.4834 47.704 10.31 46.8283 10.31C45.3139 10.31 44.1008 10.8118 43.1885 11.8152C42.2762 12.8004 41.8202 14.1232 41.8202 15.7834C41.8202 17.5531 42.2946 18.9397 43.2432 19.9431C44.2102 20.9283 45.5329 21.4209 47.2114 21.4209C48.3608 21.4209 49.3278 21.129 50.1123 20.5452C50.9151 19.9613 51.4988 19.1221 51.8638 18.0274H45.9252V14.5792H56.1056V18.9305C55.759 20.0982 55.166 21.1838 54.3268 22.1872C53.5058 23.1906 52.4567 24.0026 51.1796 24.6228C49.9025 25.2431 48.4611 25.5533 46.8556 25.5533C44.9582 25.5533 43.2614 25.1428 41.7654 24.3218C40.2876 23.4826 39.1291 22.324 38.2899 20.8462C37.4688 19.3684 37.0583 17.6808 37.0583 15.7834C37.0583 13.8859 37.4688 12.1983 38.2899 10.7205C39.1291 9.22451 40.2876 8.06595 41.7654 7.24495C43.2432 6.40573 44.9308 5.98608 46.8283 5.98608C49.1271 5.98608 51.061 6.54257 52.63 7.65545C54.2173 8.76833 55.2664 10.31 55.7772 12.2804H50.6049ZM63.3775 12.6909C63.9248 11.8517 64.609 11.1949 65.43 10.7205C66.251 10.2279 67.1632 9.98162 68.1666 9.98162V14.935H66.8804C65.7128 14.935 64.8371 15.1905 64.2532 15.7013C63.6693 16.1939 63.3775 17.0696 63.3775 18.3285V25.4165H58.6978V10.1458H63.3775V12.6909ZM77.3546 25.6354C75.8585 25.6354 74.5085 25.3162 73.3043 24.6776C72.1184 24.039 71.1788 23.1268 70.4856 21.9409C69.8104 20.755 69.473 19.3684 69.473 17.7811C69.473 16.2121 69.8196 14.8347 70.5129 13.6488C71.2061 12.4446 72.1549 11.5233 73.3591 10.8847C74.5632 10.2461 75.9132 9.92689 77.4093 9.92689C78.9054 9.92689 80.2555 10.2461 81.4596 10.8847C82.6638 11.5233 83.6124 12.4446 84.3058 13.6488C84.999 14.8347 85.3457 16.2121 85.3457 17.7811C85.3457 19.3502 84.9899 20.7368 84.2784 21.9409C83.5851 23.1268 82.6272 24.039 81.4049 24.6776C80.2007 25.3162 78.8506 25.6354 77.3546 25.6354ZM77.3546 21.5851C78.2486 21.5851 79.0057 21.2567 79.626 20.5999C80.2645 19.9431 80.5839 19.0035 80.5839 17.7811C80.5839 16.5588 80.2737 15.6192 79.6534 14.9624C79.0513 14.3056 78.3033 13.9772 77.4093 13.9772C76.4971 13.9772 75.74 14.3056 75.1379 14.9624C74.5358 15.601 74.2348 16.5405 74.2348 17.7811C74.2348 19.0035 74.5267 19.9431 75.1105 20.5999C75.7126 21.2567 76.4606 21.5851 77.3546 21.5851ZM109.749 10.1458L105.616 25.4165H100.444L98.0362 15.5097L95.5458 25.4165H90.4009L86.2411 10.1458H90.9208L93.0828 21.0652L95.6553 10.1458H100.608L103.208 21.0104L105.343 10.1458H109.749ZM119.196 14.0319H116.679V25.4165H111.999V14.0319H110.302V10.1458H111.999V9.70795C111.999 7.82881 112.537 6.40574 113.614 5.43874C114.69 4.45354 116.268 3.96094 118.348 3.96094C118.694 3.96094 118.95 3.97006 119.114 3.9883V7.95648C118.221 7.90175 117.591 8.02942 117.226 8.33962C116.861 8.64981 116.679 9.20619 116.679 10.009V10.1458H119.196V14.0319ZM136.994 10.1458L127.416 32.6686H122.38L125.883 24.8965L119.671 10.1458H124.898L128.429 19.6968L131.931 10.1458H136.994Z" fill="white"/>
<path d="M16.1565 7.52275C16.1565 3.45352 19.4552 0.154785 23.5245 0.154785H30.8924V7.52275C30.8924 11.592 27.5937 14.8907 23.5245 14.8907C19.4552 14.8907 16.1565 11.592 16.1565 7.52275Z" fill="#FF6D35"/>
<path d="M23.5243 32.568C19.4551 32.568 16.1564 29.2692 16.1564 25.2V17.832H23.5243C27.5936 17.832 30.8923 21.1308 30.8923 25.2C30.8923 29.2692 27.5936 32.568 23.5243 32.568Z" fill="#5CC97B"/>
<path d="M13.8348 15.543C13.8348 7.36626 7.70859 0.737793 0.151489 0.737793V24.9122C0.151489 29.0005 3.21461 32.3148 6.99327 32.3148C10.7718 32.3148 13.8348 29.0005 13.8348 24.9122V15.543Z" fill="#3D96F4"/>
</svg>
