<svg width="164" height="34" viewBox="0 0 164 34" fill="none" xmlns="http://www.w3.org/2000/svg">
<path d="M0.00585938 22.785L11.6654 17.7317L18.3764 21.5215L19.7322 33.9547L11.4621 33.8885L12.6822 25.2445L11.2587 24.4468L4.27647 29.7659L0.00585938 22.785Z" fill="#81818B"/>
<path d="M19.1225 20.9892L29.4265 28.369L33.4936 21.2551L25.2233 17.9972V16.4015L33.4936 13.0772L29.4265 6.02954L19.1225 13.4096V20.9892Z" fill="#81818B"/>
<path d="M18.3764 12.8115L19.7322 0.378418L11.4621 0.5114L12.6822 9.15468L11.2587 9.95253L4.20869 4.63359L0.00585938 11.5483L11.6654 16.6013L18.3764 12.8115Z" fill="#81818B"/>
<path d="M61.0844 15.6764V27.3246H65.5354V12.4801H59.0537V15.6764H61.0844Z" fill="#81818B"/>
<path d="M60.9453 10.3945C61.3532 10.8097 61.9748 11.0173 62.809 11.0173C63.6443 11.0173 64.2559 10.8097 64.645 10.3945C65.0534 9.96086 65.2571 9.41906 65.2571 8.76911C65.2571 8.10084 65.0534 7.55909 64.645 7.14381C64.2559 6.71042 63.6443 6.49365 62.809 6.49365C61.9748 6.49365 61.3532 6.71042 60.9453 7.14381C60.5563 7.55909 60.3615 8.10084 60.3615 8.76911C60.3615 9.41906 60.5563 9.96086 60.9453 10.3945Z" fill="#81818B"/>
<path d="M45.5896 26.9993C46.8506 27.5591 48.3988 27.8392 50.2348 27.8392C51.9599 27.8392 53.443 27.577 54.6862 27.0535C55.9289 26.53 56.8839 25.7984 57.5512 24.8592C58.2379 23.9021 58.5807 22.7916 58.5807 21.5274C58.5807 20.2995 58.2568 19.2611 57.6073 18.4123C56.9763 17.5455 56.0959 16.8683 54.9645 16.3808C53.8331 15.875 52.5253 15.559 51.0417 15.4328L49.484 15.2973C48.5569 15.2249 47.8891 14.9813 47.4811 14.5658C47.0727 14.1505 46.869 13.6628 46.869 13.1032C46.869 12.6696 46.9808 12.2724 47.2024 11.9112C47.4255 11.532 47.7589 11.234 48.2041 11.0173C48.6682 10.8007 49.2336 10.6923 49.9014 10.6923C50.6059 10.6923 51.1903 10.8186 51.6538 11.0716C51.7557 11.125 51.8528 11.1821 51.9436 11.2428L51.9657 11.2578C51.9998 11.2807 52.0334 11.3045 52.066 11.3285C52.3479 11.5381 52.5721 11.7865 52.739 12.0738C52.9795 12.4711 53.1007 12.9134 53.1007 13.4011H57.5512C57.5512 12.1008 57.2451 10.9721 56.6335 10.0151C56.0218 9.03991 55.1409 8.29052 53.9911 7.76663C52.8592 7.22488 51.4963 6.95398 49.9014 6.95398C48.3805 6.95398 47.0638 7.20698 45.9508 7.71255C44.8383 8.20022 43.9668 8.90446 43.3363 9.82531C42.7236 10.7464 42.4175 11.839 42.4175 13.1032C42.4175 14.8548 43.0207 16.2633 44.2261 17.3289C45.4315 18.3944 47.0454 19.0083 49.0666 19.1708L50.597 19.3063C51.8392 19.4147 52.739 19.6585 53.2955 20.0376C53.8515 20.3988 54.1297 20.8954 54.1297 21.5274C54.1297 21.8179 54.0809 22.0904 53.9833 22.3449C53.9108 22.5339 53.8111 22.7128 53.6851 22.882C53.3874 23.2609 52.9522 23.5589 52.3773 23.776C51.8024 23.9925 51.0884 24.1008 50.2348 24.1008C49.2892 24.1008 48.5196 23.9746 47.9263 23.7214C47.3326 23.4507 46.8879 23.0985 46.5902 22.6654C46.3125 22.2317 46.1739 21.7623 46.1739 21.2566H41.7502C41.7502 22.5388 42.0747 23.6766 42.7236 24.6695C43.373 25.6449 44.328 26.4217 45.5896 26.9993Z" fill="#81818B"/>
<path d="M75.4668 27.5139C73.927 27.5139 72.6848 27.3337 71.7388 26.9721C70.7927 26.5931 70.0976 25.9698 69.6524 25.1031C69.2261 24.2181 69.0124 23.0266 69.0124 21.5275V15.6494H66.7035V12.4801H69.0124V8.47119H73.1573V12.4801H77.6088V15.6494H73.1573V21.6902C73.1573 22.3945 73.3431 22.9361 73.7138 23.3151C74.1033 23.6767 74.6504 23.857 75.3555 23.857H77.6088V27.5139H75.4668Z" fill="#81818B"/>
<path fill-rule="evenodd" clip-rule="evenodd" d="M82.968 27.1891C83.9692 27.6222 85.1194 27.8392 86.4172 27.8392C87.6967 27.8392 88.8286 27.6222 89.8114 27.1891C90.7942 26.7555 91.6105 26.1506 92.2594 25.3743C92.9083 24.5975 93.3446 23.7124 93.5667 22.7195H89.4775C89.2921 23.171 88.9399 23.55 88.4206 23.8569C87.9014 24.1639 87.2331 24.3178 86.4172 24.3178C85.9117 24.3178 85.4601 24.2592 85.0622 24.1429C84.7593 24.0543 84.4878 23.9321 84.2474 23.776C83.6909 23.4149 83.283 22.9089 83.0231 22.259C82.9512 22.0738 82.8898 21.8801 82.8378 21.6784C82.7848 21.474 82.7422 21.2614 82.7102 21.04H93.8449V19.5771C93.8449 18.2228 93.5483 16.9767 92.955 15.8391C92.3613 14.6832 91.4987 13.7532 90.3679 13.0489C89.2549 12.3265 87.8825 11.9653 86.2503 11.9653C85.0076 11.9653 83.8946 12.1822 82.9118 12.6155C81.9479 13.0308 81.141 13.5996 80.4921 14.322C79.8432 15.0444 79.3423 15.8662 78.989 16.7872C78.6556 17.6899 78.4887 18.638 78.4887 19.6313V20.173C78.4887 21.1303 78.6556 22.0693 78.989 22.9903C79.3423 23.8932 79.8432 24.7147 80.4921 25.4552C81.1593 26.1779 81.9841 26.7555 82.968 27.1891ZM82.7869 18.3615C82.7989 18.3041 82.812 18.2476 82.8262 18.192C82.8651 18.0389 82.9092 17.8921 82.9601 17.7519C82.9885 17.672 83.0189 17.5942 83.0514 17.5185C83.3292 16.8502 83.7376 16.3447 84.2752 16.0016C84.4763 15.8733 84.6942 15.7691 84.9278 15.6888C85.3216 15.5542 85.7626 15.4869 86.2503 15.4869C87.011 15.4869 87.641 15.6585 88.1418 16.0016C88.6611 16.3266 89.0506 16.8051 89.3105 17.4371C89.3315 17.4882 89.3514 17.5401 89.3709 17.5926C89.4013 17.6764 89.4302 17.7623 89.4564 17.8504C89.4958 17.9815 89.53 18.1172 89.5604 18.2575C89.5825 18.3608 89.6014 18.4666 89.6182 18.575H82.7438C82.7569 18.5026 82.7711 18.4315 82.7869 18.3615Z" fill="#81818B"/>
<path d="M95.6819 27.3246V12.4801H99.2151V16.2188C99.2629 15.9965 99.3175 15.7832 99.3784 15.5787C99.4309 15.4063 99.4871 15.2402 99.5485 15.0805C99.9381 14.0691 100.522 13.3108 101.301 12.8051C102.08 12.2814 103.035 12.0197 104.167 12.0197H104.361C105.511 12.0197 106.466 12.2814 107.227 12.8051C108.006 13.3108 108.59 14.0691 108.979 15.0805L109.01 15.1568L109.036 15.2267C109.054 15.1774 109.072 15.1287 109.09 15.0805C109.498 14.0691 110.092 13.3108 110.871 12.8051C111.65 12.2814 112.605 12.0197 113.737 12.0197H113.931C115.081 12.0197 116.045 12.2814 116.824 12.8051C117.622 13.3108 118.225 14.0691 118.632 15.0805C119.04 16.0919 119.245 17.356 119.245 18.8729V27.3246H114.793V18.629C114.793 17.8164 114.571 17.1573 114.126 16.6517C113.699 16.1459 113.087 15.8932 112.29 15.8932C111.492 15.8932 110.862 16.1551 110.398 16.6788C109.935 17.1843 109.703 17.8615 109.703 18.7104V27.3246H105.224V18.629C105.224 17.8164 105.001 17.1573 104.556 16.6517C104.13 16.1459 103.526 15.8932 102.748 15.8932C101.931 15.8932 101.292 16.1551 100.828 16.6788C100.365 17.1843 100.133 17.8615 100.133 18.7104V27.3246H95.6819Z" fill="#81818B"/>
<path fill-rule="evenodd" clip-rule="evenodd" d="M131.135 24.4641V27.3246H134.667V18.2227C134.667 16.8502 134.389 15.7307 133.833 14.8637C133.276 13.9788 132.461 13.3198 131.385 12.8864C130.328 12.453 129.02 12.2362 127.462 12.2362C127.125 12.2362 126.772 12.2397 126.405 12.2469C126.188 12.2513 125.965 12.2567 125.738 12.2633C125.125 12.2814 124.532 12.3084 123.957 12.3446L123.518 12.3734C123.292 12.3887 123.081 12.4037 122.881 12.419C122.731 12.4303 122.589 12.4417 122.455 12.453V16.11C123.03 16.0737 123.67 16.0376 124.375 16.0016C124.572 15.9915 124.767 15.9821 124.961 15.9734C125.241 15.9608 125.517 15.9498 125.791 15.9403C126.007 15.9326 126.221 15.9259 126.433 15.9202C127.101 15.9021 127.639 15.8931 128.047 15.8931C128.862 15.8931 129.456 16.0827 129.827 16.462C130.198 16.8412 130.383 17.4101 130.383 18.1687V18.2227H127.629C126.276 18.2227 125.079 18.3944 124.04 18.7375C123.002 19.0625 122.195 19.5771 121.621 20.2814C121.045 20.9678 120.758 21.8526 120.758 22.9361C120.758 23.9294 120.99 24.7872 121.453 25.5098C121.917 26.2136 122.557 26.7554 123.373 27.1344C124.208 27.5139 125.172 27.7036 126.266 27.7036C127.323 27.7036 128.214 27.5139 128.937 27.1344C129.679 26.7554 130.254 26.2136 130.662 25.5098C130.734 25.3908 130.8 25.2677 130.863 25.1398C130.951 24.959 131.03 24.7688 131.099 24.5692L131.135 24.4641ZM130.383 21.8256V20.6336H127.601C126.822 20.6336 126.22 20.8232 125.793 21.2025C125.385 21.5637 125.181 22.0603 125.181 22.6923C125.181 22.9898 125.232 23.2601 125.333 23.5039C125.436 23.7482 125.589 23.9652 125.793 24.1549C126.22 24.5165 126.822 24.6968 127.601 24.6968C127.749 24.6968 127.893 24.6896 128.031 24.6758C128.144 24.6641 128.254 24.6476 128.361 24.6265C128.564 24.5863 128.757 24.5281 128.937 24.4529C129.345 24.2726 129.679 23.9746 129.938 23.5589C130.198 23.1437 130.347 22.5656 130.383 21.8256Z" fill="#81818B"/>
<path d="M137.331 27.3247V12.4802H140.864V17.3798C141.033 15.9811 141.46 14.8533 142.144 13.9971C143.072 12.8595 144.406 12.2906 146.15 12.2906H146.734V16.0287H145.621C144.398 16.0287 143.452 16.3537 142.784 17.0038C142.116 17.6359 141.782 18.557 141.782 19.7668V27.3247H137.331Z" fill="#81818B"/>
<path d="M152.379 20.3899H153.853L158.666 27.3247H163.673L157.57 18.808L162.588 12.4802H157.915L152.379 19.5384V7.55017H147.928V27.3247H152.379V20.3899Z" fill="#81818B"/>
</svg>
