<svg width="168" height="38" viewBox="0 0 168 38" fill="none" xmlns="http://www.w3.org/2000/svg">
<path d="M50.0802 10.191C51.6678 10.191 53.0417 10.4466 54.2025 10.9576C55.38 11.4687 56.2841 12.1941 56.9157 13.1338C57.5472 14.0735 57.8633 15.1863 57.8633 16.4722C57.8633 17.7416 57.5472 18.8544 56.9157 19.8107C56.2841 20.7504 55.38 21.4758 54.2025 21.987C53.0417 22.4813 51.6678 22.7287 50.0802 22.7287H46.4708V27.5016H42.3238V10.191H50.0802ZM49.8502 19.4644C51.0955 19.4644 52.0431 19.2089 52.6915 18.6978C53.3404 18.1703 53.6643 17.4284 53.6643 16.4722C53.6643 15.4995 53.3404 14.7576 52.6915 14.2466C52.0431 13.719 51.0955 13.4553 49.8502 13.4553H46.4708V19.4644H49.8502Z" fill="#81818B"/>
<path d="M63.0771 15.953C63.5543 15.31 64.1948 14.8236 64.9965 14.4939C65.816 14.1642 66.7542 13.9994 67.8126 13.9994V17.5604C67.3689 17.5274 67.0702 17.5109 66.9164 17.5109C65.7729 17.5109 64.8773 17.8242 64.2289 18.4506C63.58 19.0605 63.2556 19.9838 63.2556 21.2202V27.5016H59.2624V14.1972H63.0771V15.953Z" fill="#81818B"/>
<path d="M75.3358 27.6991C73.8852 27.6991 72.5796 27.4109 71.4193 26.8337C70.2759 26.2404 69.3797 25.424 68.7313 24.3854C68.0829 23.3469 67.7585 22.1681 67.7585 20.8493C67.7585 19.5304 68.0829 18.3517 68.7313 17.313C69.3797 16.2744 70.2759 15.4667 71.4193 14.8896C72.5796 14.2961 73.8852 13.9994 75.3358 13.9994C76.7864 13.9994 78.0837 14.2961 79.2271 14.8896C80.3706 15.4667 81.2667 16.2744 81.9156 17.313C82.5635 18.3517 82.8879 19.5304 82.8879 20.8493C82.8879 22.1681 82.5635 23.3469 81.9156 24.3854C81.2667 25.424 80.3706 26.2404 79.2271 26.8337C78.0837 27.4109 76.7864 27.6991 75.3358 27.6991ZM75.3358 24.5338C76.3601 24.5338 77.1964 24.2044 77.8448 23.5447C78.5105 22.869 78.8428 21.9706 78.8428 20.8493C78.8428 19.7283 78.5105 18.838 77.8448 18.1785C77.1964 17.5026 76.3601 17.1647 75.3358 17.1647C74.3121 17.1647 73.4673 17.5026 72.8016 18.1785C72.1359 18.838 71.8031 19.7283 71.8031 20.8493C71.8031 21.9706 72.1359 22.869 72.8016 23.5447C73.4673 24.2044 74.3121 24.5338 75.3358 24.5338Z" fill="#81818B"/>
<path d="M100.995 10.191V27.5016H97.59L88.6551 16.9915V27.5016H84.559V10.191H87.9894L96.8986 20.7009V10.191H100.995Z" fill="#81818B"/>
<path d="M109.228 13.9994C111.361 13.9994 113 14.4939 114.143 15.4831C115.287 16.4558 115.858 17.9313 115.858 19.9096V27.5016H112.121V25.8445C111.37 27.0811 109.971 27.6991 107.923 27.6991C106.864 27.6991 105.942 27.5263 105.157 27.18C104.39 26.8337 103.801 26.3558 103.391 25.7456C102.982 25.1358 102.777 24.4432 102.777 23.6684C102.777 22.4319 103.255 21.4593 104.21 20.7504C105.183 20.0415 106.677 19.6871 108.691 19.6871H111.865C111.865 18.8462 111.601 18.2033 111.071 17.7582C110.542 17.2966 109.749 17.0658 108.691 17.0658C107.957 17.0658 107.231 17.1812 106.515 17.412C105.815 17.6263 105.217 17.9231 104.722 18.3022L103.289 15.6067C104.04 15.0957 104.935 14.7001 105.976 14.4198C107.035 14.1395 108.119 13.9994 109.228 13.9994ZM108.921 25.1028C109.604 25.1028 110.209 24.9544 110.738 24.6576C111.267 24.3442 111.643 23.8911 111.865 23.2974V21.9376H109.126C107.487 21.9376 106.668 22.4567 106.668 23.4953C106.668 23.99 106.864 24.3854 107.257 24.6823C107.666 24.9627 108.221 25.1028 108.921 25.1028Z" fill="#81818B"/>
<path d="M127.076 26.8584C126.684 27.1387 126.197 27.3532 125.617 27.5016C125.054 27.6331 124.456 27.6991 123.825 27.6991C122.187 27.6991 120.915 27.2955 120.011 26.4877C119.123 25.6796 118.679 24.4926 118.679 22.9267V17.4614H116.555V14.4939H118.679V11.2544H122.673V14.4939H126.103V17.4614H122.673V22.8772C122.673 23.4375 122.818 23.8746 123.108 24.1879C123.415 24.4843 123.842 24.6328 124.388 24.6328C125.02 24.6328 125.557 24.4679 126.001 24.1384L127.076 26.8584Z" fill="#81818B"/>
<path d="M141.914 14.1973V27.5017H138.125V25.9188C137.596 26.4957 136.964 26.941 136.23 27.2543C135.496 27.5512 134.703 27.6992 133.849 27.6992C132.04 27.6992 130.607 27.1966 129.548 26.1909C128.49 25.1854 127.961 23.6932 127.961 21.715V14.1973H131.955V21.146C131.955 23.2892 132.885 24.3607 134.745 24.3607C135.701 24.3607 136.469 24.0643 137.05 23.4706C137.629 22.8608 137.919 21.9624 137.919 20.7752V14.1973H141.914Z" fill="#81818B"/>
<path d="M148.148 15.953C148.625 15.31 149.266 14.8236 150.067 14.4939C150.886 14.1642 151.826 13.9994 152.884 13.9994V17.5604C152.44 17.5274 152.141 17.5109 151.988 17.5109C150.844 17.5109 149.948 17.8242 149.3 18.4506C148.651 19.0605 148.327 19.9838 148.327 21.2202V27.5016H144.333V14.1972H148.148V15.953Z" fill="#81818B"/>
<path d="M167.345 20.899C167.345 20.948 167.319 21.2944 167.268 21.9376H156.849C157.036 22.7618 157.48 23.4128 158.18 23.8911C158.88 24.3689 159.75 24.6081 160.791 24.6081C161.508 24.6081 162.139 24.5091 162.685 24.3112C163.249 24.0972 163.769 23.7674 164.247 23.3221L166.372 25.5477C165.075 26.9821 163.18 27.6991 160.688 27.6991C159.136 27.6991 157.762 27.4109 156.567 26.8337C155.372 26.2404 154.451 25.424 153.802 24.3854C153.153 23.3469 152.829 22.1681 152.829 20.8493C152.829 19.5469 153.145 18.3764 153.777 17.3378C154.425 16.2827 155.304 15.4667 156.413 14.8896C157.54 14.2961 158.794 13.9994 160.177 13.9994C161.525 13.9994 162.745 14.2796 163.838 14.8401C164.93 15.4007 165.783 16.2085 166.398 17.2636C167.029 18.3022 167.345 19.5139 167.345 20.899ZM160.202 16.9174C159.298 16.9174 158.538 17.1647 157.924 17.6593C157.309 18.1539 156.934 18.8298 156.797 19.6871H163.581C163.445 18.8462 163.069 18.1785 162.455 17.684C161.841 17.1729 161.09 16.9174 160.202 16.9174Z" fill="#81818B"/>
<path fill-rule="evenodd" clip-rule="evenodd" d="M19.58 0.550808C18.9715 0.210766 18.2212 0.210766 17.6127 0.550808C13.2907 2.96586 10.3757 7.48449 10.3757 12.6631C10.3757 13.4011 10.4349 14.1258 10.549 14.8329C7.57374 13.8569 4.35224 14.212 1.72094 15.6766C1.11189 16.0157 0.736721 16.6433 0.737351 17.3223C0.740449 20.9047 2.66699 24.3962 6.11729 26.3203C7.80999 27.2645 9.65752 27.7131 11.4799 27.7139C11.2026 28.473 11.0518 29.2894 11.0518 30.1399C11.0518 34.1649 14.4295 37.4272 18.5961 37.4272C22.7628 37.4272 26.1403 34.1649 26.1403 30.1399C26.1403 29.2873 25.9888 28.4693 25.7105 27.709C27.4243 27.6566 29.1503 27.2072 30.7398 26.3203C34.1905 24.3962 36.1167 20.9047 36.1194 17.3225C36.1204 16.6434 35.745 16.0158 35.136 15.6768C32.6087 14.2698 29.5362 13.8867 26.6611 14.7239C26.7639 14.0514 26.8168 13.3633 26.8168 12.6631C26.8168 7.48449 23.902 2.96586 19.58 0.550808ZM14.3044 12.6631C14.3044 9.30025 15.99 6.31594 18.5963 4.45833C21.2027 6.31594 22.8883 9.30025 22.8883 12.6631C22.8883 16.0259 21.2027 19.0102 18.5963 20.8677C15.99 19.0102 14.3044 16.0259 14.3044 12.6631ZM26.3435 18.965C28.1575 17.9532 30.2537 17.8356 32.0847 18.4757C31.7435 20.3276 30.5896 22.0221 28.7756 23.0339C26.9615 24.0457 24.8654 24.1632 23.0343 23.5233C23.3758 21.6712 24.5295 19.9767 26.3435 18.965ZM4.77245 18.4756C6.60344 17.8354 8.69955 17.9531 10.5136 18.9649C12.3277 19.9765 13.4813 21.6712 13.8229 23.5229C11.9918 24.1632 9.89571 24.0457 8.08163 23.0339C6.2676 22.0221 5.11401 20.3275 4.77245 18.4756ZM14.9805 30.1399C14.9805 28.2112 16.5992 26.6473 18.5961 26.6473C20.5929 26.6473 22.2118 28.2112 22.2118 30.1399C22.2118 32.0687 20.5929 33.6325 18.5961 33.6325C16.5992 33.6325 14.9805 32.0687 14.9805 30.1399Z" fill="#81818B"/>
</svg>
