<svg width="164" height="32" viewBox="0 0 164 32" fill="none" xmlns="http://www.w3.org/2000/svg">
<path d="M52.7185 28.2222C50.3618 28.2222 48.2786 27.7474 46.4689 26.7985C44.6587 25.8278 43.2596 24.458 42.2705 22.6895C41.2819 20.9208 40.7874 18.8393 40.7874 16.4452C40.7874 14.0509 41.2819 11.9695 42.2705 10.2008C43.2596 8.41051 44.6587 7.04089 46.4689 6.09179C48.2786 5.12117 50.3618 4.63586 52.7185 4.63586C54.3182 4.63586 55.7278 4.80843 56.9485 5.15351C58.1901 5.47707 59.3262 5.99472 60.3573 6.70652V11.3979C59.4317 10.6214 58.3691 10.0606 57.1695 9.71545C55.9909 9.34879 54.6442 9.16546 53.1291 9.16546C51.7195 9.16546 50.4458 9.46744 49.3097 10.0713C48.1946 10.6537 47.3105 11.4949 46.6585 12.595C46.0059 13.695 45.6799 14.9784 45.6799 16.4452C45.6799 17.9334 45.9744 19.2384 46.5634 20.36C47.174 21.46 48.0261 22.312 49.1202 22.9159C50.2143 23.5199 51.4774 23.8219 52.9081 23.8219C54.2127 23.8219 55.3488 23.5846 56.3169 23.1101V18.7422H52.75V15.1186H60.9568V26.022C58.8736 27.4886 56.1279 28.2222 52.7185 28.2222Z" fill="#81818B"/>
<path d="M62.0651 12.2068H66.6736V14.4392C67.2841 13.6843 68.1362 13.1126 69.2303 12.7245C70.3244 12.3146 71.5666 12.1097 72.9552 12.1097V15.8305C71.503 15.8305 70.2194 16.0569 69.1043 16.5099C68.0097 16.9628 67.2521 17.6531 66.8316 18.5805V27.7369H62.0651V12.2068Z" fill="#81818B"/>
<path d="M82.1149 28.2222C79.2106 28.2222 76.9273 27.5101 75.2652 26.0864C73.6025 24.6417 72.7714 22.6248 72.7714 20.0364C72.7714 17.4697 73.508 15.4422 74.9812 13.9539C76.4753 12.4656 78.6005 11.7214 81.3573 11.7214C83.167 11.7214 84.7026 12.0666 85.9657 12.7567C87.2278 13.447 88.186 14.4068 88.838 15.6363C89.4906 16.8442 89.8166 18.2138 89.8166 19.7453V21.7189H77.3169C77.6534 23.7033 79.4631 24.6957 82.7459 24.6957C83.714 24.6957 84.7136 24.6093 85.7447 24.4365C86.7758 24.2641 87.6704 24.0268 88.428 23.7248V27.1546C87.6914 27.4777 86.7443 27.7369 85.5867 27.9311C84.4296 28.1248 83.272 28.2222 82.1149 28.2222ZM85.3027 18.5482C85.2397 17.5128 84.8606 16.7148 84.1666 16.154C83.472 15.5716 82.5144 15.2804 81.2938 15.2804C80.0947 15.2804 79.1476 15.5716 78.453 16.154C77.7589 16.7363 77.3799 17.5344 77.3169 18.5482H85.3027Z" fill="#81818B"/>
<path d="M99.5864 28.2222C96.6826 28.2222 94.3993 27.5101 92.7367 26.0864C91.0745 24.6417 90.2429 22.6248 90.2429 20.0364C90.2429 17.4697 90.9795 15.4422 92.4526 13.9539C93.9468 12.4656 96.072 11.7214 98.8288 11.7214C100.638 11.7214 102.175 12.0666 103.438 12.7567C104.7 13.447 105.657 14.4068 106.31 15.6363C106.962 16.8442 107.288 18.2138 107.288 19.7453V21.7189H94.7884C95.1249 23.7033 96.9351 24.6957 100.218 24.6957C101.186 24.6957 102.186 24.6093 103.216 24.4365C104.247 24.2641 105.142 24.0268 105.899 23.7248V27.1546C105.163 27.4777 104.216 27.7369 103.059 27.9311C101.901 28.1248 100.744 28.2222 99.5864 28.2222ZM102.775 18.5482C102.711 17.5128 102.333 16.7148 101.639 16.154C100.943 15.5716 99.9864 15.2804 98.7658 15.2804C97.5661 15.2804 96.6196 15.5716 95.925 16.154C95.2304 16.7363 94.8519 17.5344 94.7884 18.5482H102.775Z" fill="#81818B"/>
<path d="M108.346 12.2067H112.954V14.1156C113.65 13.3176 114.47 12.7244 115.417 12.3362C116.385 11.9263 117.395 11.7214 118.447 11.7214C120.51 11.7214 122.046 12.293 123.055 13.4362C124.087 14.5579 124.603 16.0785 124.603 17.9982V27.7369H119.836V18.5482C119.836 16.5422 118.931 15.5392 117.121 15.5392C116.322 15.5392 115.575 15.7441 114.88 16.154C114.186 16.5422 113.597 17.1246 113.112 17.9011V27.7369H108.346V12.2067Z" fill="#81818B"/>
<path d="M128.807 9.81251C128.071 9.81251 127.451 9.5645 126.946 9.06837C126.44 8.5723 126.188 7.94676 126.188 7.19181C126.188 6.45849 126.44 5.84377 126.946 5.34764C127.451 4.82999 128.071 4.57117 128.807 4.57117C129.544 4.57117 130.165 4.82999 130.67 5.34764C131.175 5.84377 131.428 6.45849 131.428 7.19181C131.428 7.94676 131.175 8.5723 130.67 9.06837C130.165 9.5645 129.544 9.81251 128.807 9.81251ZM126.409 12.2067H131.207V27.7368H126.409V12.2067Z" fill="#81818B"/>
<path d="M139.336 28.2222C138.2 28.2222 136.979 28.0924 135.674 27.8337C134.391 27.5965 133.381 27.2515 132.644 26.7985V22.9807C133.486 23.4983 134.496 23.919 135.674 24.2425C136.853 24.5659 137.947 24.7276 138.957 24.7276C139.82 24.7276 140.451 24.6522 140.851 24.5014C141.25 24.3503 141.45 24.0699 141.45 23.6601C141.45 23.3366 141.335 23.0778 141.103 22.8836C140.872 22.6679 140.514 22.4846 140.03 22.3336C139.567 22.161 138.788 21.913 137.694 21.5894C136.411 21.2012 135.4 20.813 134.664 20.4247C133.949 20.0149 133.402 19.508 133.023 18.9041C132.665 18.3001 132.486 17.5236 132.486 16.5745C132.486 14.9568 133.107 13.7489 134.349 12.9509C135.611 12.1312 137.315 11.7214 139.462 11.7214C140.514 11.7214 141.598 11.84 142.713 12.0773C143.849 12.293 144.723 12.5842 145.333 12.9509V16.6716C144.723 16.2618 143.923 15.9275 142.934 15.6686C141.966 15.4098 141.019 15.2804 140.093 15.2804C139.23 15.2804 138.557 15.3667 138.073 15.5392C137.61 15.7118 137.378 16.0353 137.378 16.5099C137.378 16.9197 137.599 17.2324 138.042 17.4481C138.504 17.6638 139.357 17.9334 140.598 18.257L141.23 18.4187C142.555 18.7854 143.586 19.1952 144.323 19.6483C145.059 20.0796 145.575 20.608 145.87 21.2335C146.185 21.8375 146.343 22.6032 146.343 23.5307C146.343 24.9544 145.743 26.0974 144.544 26.9603C143.345 27.8013 141.608 28.2222 139.336 28.2222Z" fill="#81818B"/>
<path d="M147.445 3.82703H152.211V13.9862C152.927 13.2313 153.737 12.6705 154.642 12.3038C155.547 11.9155 156.515 11.7215 157.546 11.7215C159.608 11.7215 161.144 12.293 162.154 13.4362C163.185 14.5578 163.701 16.0785 163.701 17.9982V27.7369H158.935V18.5482C158.935 16.5422 158.03 15.5392 156.22 15.5392C155.42 15.5392 154.674 15.7442 153.979 16.154C153.284 16.5422 152.695 17.1246 152.211 17.9011V27.7369H147.445V3.82703Z" fill="#81818B"/>
<path fill-rule="evenodd" clip-rule="evenodd" d="M24.5092 8.40483C24.5092 12.5146 21.2591 15.8462 17.2495 15.8462C13.2399 15.8462 9.98952 12.5146 9.98952 8.40483C9.98952 4.29503 13.2399 0.963379 17.2495 0.963379C21.2591 0.963379 24.5092 4.29503 24.5092 8.40483ZM0.362231 15.3054C8.27178 14.759 15.1652 20.8289 15.8073 28.9534C15.8738 29.7952 15.8706 30.6262 15.8027 31.441C7.89315 31.9876 0.999738 25.9175 0.357611 17.793C0.291146 16.9512 0.294296 16.12 0.362231 15.3054ZM20.9203 31.1565C28.8466 30.4981 34.7683 23.4326 34.2354 15.3254C33.4405 15.2557 32.6299 15.2525 31.8083 15.3207C23.882 15.9788 17.9602 23.0445 18.4934 31.1518C19.2881 31.2216 20.0989 31.2247 20.9203 31.1565Z" fill="#81818B"/>
</svg>
