<svg width="164" height="36" viewBox="0 0 164 36" fill="none" xmlns="http://www.w3.org/2000/svg">
<path fill-rule="evenodd" clip-rule="evenodd" d="M6.42734 9.62672C9.16768 6.1245 13.5559 3.85555 18.5018 3.85555C23.4768 3.85555 27.8873 6.15127 30.6244 9.68862C30.5079 9.80244 30.4018 9.92041 30.3058 10.0382C29.8044 10.6551 29.4272 11.4496 29.125 12.2566C28.5164 13.8793 28.0522 15.9991 27.6224 17.9841L27.5842 18.1625C27.1554 20.1439 26.7568 21.9865 26.2749 23.3544C26.0584 23.9689 25.853 24.4034 25.671 24.6817C25.481 24.4012 25.2654 23.9614 25.0372 23.3381C24.5218 21.9309 24.0882 20.0169 23.6287 17.9733L23.6138 17.9063V17.9063C23.1722 15.9433 22.7037 13.8605 22.1196 12.2662C21.8262 11.4654 21.4661 10.6787 20.9952 10.0676C20.533 9.4678 19.7637 8.79092 18.6385 8.79092C17.5204 8.79092 16.7476 9.46045 16.2787 10.0535C15.7987 10.6607 15.4245 11.4441 15.1162 12.2453C14.4953 13.8589 13.9878 15.9695 13.5154 17.9572L13.4666 18.1625C12.9988 20.1316 12.5615 21.9724 12.0652 23.3429C11.8757 23.8663 11.6969 24.2645 11.535 24.549C11.3768 24.2658 11.2025 23.8703 11.0182 23.3513C10.542 22.01 10.1248 20.2207 9.67678 18.2989L9.59834 17.9625C9.13414 15.9736 8.63051 13.8592 8.00082 12.2406C7.68797 11.4363 7.3053 10.6491 6.81012 10.039C6.69798 9.90093 6.57056 9.76075 6.42734 9.62672ZM4.76882 12.3159C4.89933 12.5607 5.03741 12.8642 5.18015 13.2312C5.72521 14.6322 6.18694 16.5439 6.66244 18.5812L6.75499 18.9781C7.18791 20.837 7.63825 22.7706 8.16871 24.2645C8.45085 25.059 8.79157 25.8373 9.22974 26.4421C9.64412 27.0141 10.3875 27.7529 11.5306 27.7529C12.6704 27.7529 13.4155 27.0177 13.8327 26.4482C14.2747 25.8448 14.621 25.0675 14.9088 24.2724C15.4605 22.749 15.9304 20.77 16.38 18.8761V18.876L16.4488 18.5865C16.9332 16.5481 17.3995 14.6325 17.9406 13.2264C18.1912 12.575 18.4259 12.1212 18.6302 11.8396C18.8238 12.1187 19.045 12.5654 19.2796 13.2056C19.7952 14.6128 20.2283 16.5267 20.6879 18.5704L20.703 18.6374C21.1445 20.6004 21.613 22.6832 22.197 24.2773C22.4905 25.0785 22.8506 25.8651 23.3215 26.4761C23.7837 27.076 24.553 27.7529 25.6779 27.7529C26.8089 27.7529 27.5754 27.0698 28.0321 26.4646C28.4959 25.8505 28.8447 25.0613 29.1264 24.2614C29.6679 22.725 30.0984 20.7315 30.5089 18.835V18.835L30.5677 18.5596C31.0098 16.5184 31.434 14.612 31.9579 13.2153C32.0713 12.9114 32.1832 12.6523 32.2897 12.4347C33.0925 14.1827 33.5377 16.1129 33.5377 18.1419C33.5377 26.0319 26.8062 32.4284 18.5018 32.4284C10.1977 32.4284 3.46582 26.0319 3.46582 18.1419C3.46582 16.0668 3.93144 14.095 4.76882 12.3159ZM18.5018 0.998291C8.53684 0.998291 0.458618 8.67374 0.458618 18.1419C0.458618 27.61 8.53684 35.2854 18.5018 35.2854C28.467 35.2854 36.5449 27.61 36.5449 18.1419C36.5449 8.67374 28.467 0.998291 18.5018 0.998291ZM18.8456 11.6004C18.8456 11.6008 18.8421 11.6035 18.835 11.6073C18.842 11.602 18.8456 11.6001 18.8456 11.6004ZM18.4299 11.6023C18.423 11.5983 18.4195 11.5955 18.4195 11.5952C18.4195 11.5948 18.423 11.5968 18.4299 11.6023ZM25.4493 24.9529C25.4493 24.9529 25.4526 24.9498 25.4591 24.9458C25.4526 24.9511 25.4493 24.9533 25.4493 24.9529ZM25.8865 24.9414C25.8935 24.9454 25.8972 24.948 25.8972 24.9485C25.8972 24.9489 25.8935 24.9467 25.8865 24.9414ZM11.2224 24.9786C11.2224 24.9781 11.2267 24.9741 11.2354 24.9684C11.2268 24.9759 11.2224 24.979 11.2224 24.9786ZM11.8314 24.971C11.84 24.9768 11.8443 24.9808 11.8443 24.9812C11.8443 24.9817 11.8399 24.979 11.8314 24.971Z" fill="#81818B"/>
<path d="M46.5078 28.2913L42.1324 14.0707H45.9649L48.56 24.306L51.5772 14.0707H55.8622L58.8799 24.306L61.5049 14.0707H65.3374L60.9316 28.2913H56.9185L53.7197 17.6545L50.5214 28.2913H46.5078Z" fill="#81818B"/>
<path d="M70.9607 28.6355C69.6734 28.6355 68.6171 28.444 67.7923 28.0617C66.9681 27.6604 66.3544 27.1349 65.9517 26.485C65.5495 25.835 65.3484 25.1183 65.3484 24.3348C65.3484 23.016 65.8913 21.9456 66.9775 21.1237C68.0638 20.3018 69.6939 19.8908 71.8663 19.8908H75.6684V19.5468C75.6684 18.572 75.3765 17.8552 74.7932 17.3965C74.2099 16.9377 73.4854 16.7084 72.6208 16.7084C71.8359 16.7084 71.1518 16.89 70.5685 17.2532C69.9853 17.5972 69.623 18.1133 69.4823 18.8013H65.7102C65.811 17.7692 66.1732 16.8709 66.7964 16.1063C67.4406 15.3418 68.2654 14.7588 69.2707 14.3574C70.2772 13.9369 71.4033 13.7267 72.6507 13.7267C74.7832 13.7267 76.4627 14.2332 77.6902 15.2462C78.9171 16.2592 79.5308 17.6928 79.5308 19.5468V28.2913H76.2411L75.8794 25.9978C75.4369 26.7623 74.8132 27.3928 74.0089 27.8901C73.224 28.3869 72.2081 28.6355 70.9607 28.6355ZM71.8359 25.7682C72.9426 25.7682 73.7973 25.4241 74.4005 24.7361C75.0242 24.0481 75.4169 23.1974 75.5781 22.1844H72.2884C71.2626 22.1844 70.5286 22.366 70.0855 22.7292C69.6435 23.0731 69.4219 23.5035 69.4219 24.0194C69.4219 24.5737 69.6435 25.0037 70.0855 25.3094C70.5286 25.6152 71.1114 25.7682 71.8359 25.7682Z" fill="#81818B"/>
<path d="M85.6108 28.2913L80.1193 14.0707H84.1623L87.9644 24.8223L91.7664 14.0707H95.81L90.2881 28.2913H85.6108Z" fill="#81818B"/>
<path d="M103.574 28.6355C102.066 28.6355 100.728 28.3294 99.5611 27.7179C98.3946 27.1061 97.4795 26.246 96.8154 25.1374C96.1513 24.0291 95.82 22.7483 95.82 21.2957C95.82 19.8239 96.1418 18.5146 96.7849 17.3678C97.4491 16.221 98.3542 15.3322 99.5013 14.7015C100.667 14.0516 102.035 13.7267 103.605 13.7267C105.073 13.7267 106.371 14.0325 107.498 14.6441C108.624 15.2557 109.499 16.0967 110.123 17.1671C110.766 18.2184 111.089 19.3939 111.089 20.6936C111.089 20.9039 111.078 21.1237 111.058 21.353C111.058 21.5824 111.048 21.8213 111.028 22.0698H99.652C99.7323 23.1783 100.135 24.0481 100.859 24.679C101.603 25.3094 102.499 25.6249 103.545 25.6249C104.329 25.6249 104.983 25.4625 105.506 25.1374C106.049 24.7936 106.451 24.3538 106.713 23.8185H110.635C110.354 24.717 109.881 25.5391 109.217 26.2845C108.573 27.0105 107.769 27.5839 106.803 28.0046C105.858 28.425 104.781 28.6355 103.574 28.6355ZM103.605 16.7084C102.66 16.7084 101.824 16.9665 101.1 17.4825C100.376 17.9794 99.9134 18.744 99.7118 19.7762H107.165C107.105 18.8396 106.743 18.0941 106.079 17.5398C105.415 16.9856 104.591 16.7084 103.605 16.7084Z" fill="#81818B"/>
<path d="M113.13 28.2913V7.64844H116.992V28.2913H113.13Z" fill="#81818B"/>
<path d="M127.003 28.6355C125.495 28.6355 124.157 28.3294 122.99 27.7179C121.824 27.1061 120.909 26.246 120.245 25.1374C119.58 24.0291 119.249 22.7483 119.249 21.2957C119.249 19.8239 119.571 18.5146 120.214 17.3678C120.878 16.221 121.783 15.3322 122.93 14.7015C124.097 14.0516 125.465 13.7267 127.034 13.7267C128.502 13.7267 129.8 14.0325 130.927 14.6441C132.053 15.2557 132.929 16.0967 133.552 17.1671C134.195 18.2184 134.518 19.3939 134.518 20.6936C134.518 20.9039 134.507 21.1237 134.487 21.353C134.487 21.5824 134.477 21.8213 134.457 22.0698H123.081C123.161 23.1783 123.564 24.0481 124.288 24.679C125.032 25.3094 125.928 25.6249 126.974 25.6249C127.758 25.6249 128.412 25.4625 128.935 25.1374C129.478 24.7936 129.88 24.3538 130.142 23.8185H134.065C133.783 24.717 133.31 25.5391 132.647 26.2845C132.002 27.0105 131.198 27.5839 130.232 28.0046C129.287 28.425 128.211 28.6355 127.003 28.6355ZM127.034 16.7084C126.089 16.7084 125.254 16.9665 124.529 17.4825C123.805 17.9794 123.343 18.744 123.141 19.7762H130.594C130.534 18.8396 130.172 18.0941 129.508 17.5398C128.844 16.9856 128.02 16.7084 127.034 16.7084Z" fill="#81818B"/>
<path d="M142.745 28.6355C141.417 28.6355 140.25 28.4347 139.245 28.0334C138.238 27.6127 137.434 27.0393 136.83 26.3128C136.227 25.5869 135.865 24.7458 135.744 23.7902H139.636C139.757 24.3441 140.08 24.8224 140.603 25.2236C141.145 25.6059 141.839 25.797 142.684 25.797C143.529 25.797 144.143 25.6346 144.525 25.3094C144.927 24.9847 145.129 24.6118 145.129 24.1915C145.129 23.5796 144.847 23.1686 144.284 22.9584C143.72 22.7292 142.936 22.5094 141.93 22.2992C141.287 22.1653 140.633 22.0029 139.969 21.8117C139.305 21.6206 138.691 21.3817 138.128 21.095C137.585 20.7891 137.142 20.4069 136.8 19.9481C136.458 19.4703 136.288 18.8873 136.288 18.1993C136.288 16.9377 136.81 15.877 137.857 15.0169C138.922 14.1567 140.411 13.7267 142.322 13.7267C144.093 13.7267 145.501 14.1185 146.547 14.9022C147.613 15.6858 148.247 16.7658 148.448 18.1419H144.797C144.575 17.0907 143.74 16.565 142.292 16.565C141.568 16.565 141.005 16.6989 140.603 16.9665C140.22 17.2341 140.029 17.5685 140.029 17.9699C140.029 18.3904 140.321 18.7249 140.904 18.9734C141.488 19.2219 142.262 19.4512 143.228 19.6615C144.273 19.8908 145.229 20.1489 146.094 20.4356C146.979 20.7031 147.683 21.1141 148.207 21.6684C148.729 22.2035 148.991 22.9775 148.991 23.9906C149.011 24.8701 148.769 25.6629 148.267 26.3704C147.764 27.0773 147.04 27.6317 146.094 28.0334C145.149 28.4347 144.032 28.6355 142.745 28.6355Z" fill="#81818B"/>
<path d="M157.391 28.6355C156.064 28.6355 154.897 28.4347 153.891 28.0334C152.885 27.6127 152.081 27.0393 151.477 26.3128C150.874 25.5869 150.511 24.7458 150.391 23.7902H154.283C154.404 24.3441 154.726 24.8224 155.249 25.2236C155.792 25.6059 156.486 25.797 157.331 25.797C158.176 25.797 158.79 25.6346 159.172 25.3094C159.574 24.9847 159.775 24.6118 159.775 24.1915C159.775 23.5796 159.494 23.1686 158.93 22.9584C158.367 22.7292 157.583 22.5094 156.577 22.2992C155.933 22.1653 155.279 22.0029 154.615 21.8117C153.952 21.6206 153.338 21.3817 152.775 21.095C152.232 20.7891 151.789 20.4069 151.447 19.9481C151.105 19.4703 150.934 18.8873 150.934 18.1993C150.934 16.9377 151.457 15.877 152.503 15.0169C153.569 14.1567 155.058 13.7267 156.969 13.7267C158.739 13.7267 160.147 14.1185 161.194 14.9022C162.259 15.6858 162.893 16.7658 163.095 18.1419H159.443C159.222 17.0907 158.387 16.565 156.939 16.565C156.214 16.565 155.651 16.6989 155.249 16.9665C154.867 17.2341 154.676 17.5685 154.676 17.9699C154.676 18.3904 154.967 18.7249 155.551 18.9734C156.134 19.2219 156.908 19.4512 157.874 19.6615C158.92 19.8908 159.876 20.1489 160.741 20.4356C161.626 20.7031 162.33 21.1141 162.853 21.6684C163.376 22.2035 163.638 22.9775 163.638 23.9906C163.658 24.8701 163.416 25.6629 162.913 26.3704C162.41 27.0773 161.686 27.6317 160.741 28.0334C159.795 28.4347 158.679 28.6355 157.391 28.6355Z" fill="#81818B"/>
</svg>
