<svg width="160" height="30" viewBox="0 0 160 30" fill="none" xmlns="http://www.w3.org/2000/svg">
<path d="M4.70761 3.68621C6.86179 1.72434 9.78688 0.57921 12.7515 0.436778C13.7662 0.436778 14.7838 0.442553 15.7985 0.433838C15.7467 1.4715 15.7985 2.512 15.768 3.54961C15.6248 5.86901 14.7259 8.13606 13.2116 9.9555C11.2433 12.4028 8.23293 14.0449 5.03668 14.4693C3.64118 14.6844 2.22431 14.5478 0.819721 14.5856C0.844081 13.4433 0.767903 12.2982 0.862351 11.1588C1.13661 8.33372 2.53516 5.62777 4.70761 3.68621Z" fill="#81818B"/>
<path d="M16.738 0.433838C17.8258 0.445493 18.9136 0.428063 20.0044 0.439666C22.7192 0.622733 25.3975 1.61677 27.4418 3.3404C29.6965 5.18598 31.2416 7.8251 31.6374 10.6444C31.8112 11.9523 31.7015 13.2747 31.7687 14.5885C30.8179 14.5856 29.8703 14.5827 28.9195 14.5885C26.5827 14.5275 24.2853 13.8066 22.3292 12.5917C21.4273 11.9755 20.501 11.3507 19.8246 10.4961C18.3408 8.915 17.3322 6.92987 16.9513 4.83722C16.6649 3.38392 16.7807 1.90163 16.738 0.433838Z" fill="#81818B"/>
<path d="M0.821746 15.4197C1.78764 15.472 2.75658 15.3761 3.71938 15.4778C7.84189 15.5621 11.8425 17.771 13.9784 21.1338C15.2033 23.0172 15.8614 25.2496 15.7762 27.4669C15.7731 28.1941 15.7853 28.9175 15.7639 29.6415C14.2344 29.5974 12.6896 29.7166 11.1752 29.4347C7.81144 28.8944 4.71882 26.9845 2.85707 24.2583C1.44634 22.2761 0.742524 19.855 0.815656 17.4629C0.815656 16.7798 0.815656 16.0998 0.821746 15.4197Z" fill="#81818B"/>
<path d="M26.6204 15.7276C28.278 15.3759 29.9868 15.434 31.6721 15.434L31.7456 15.5038C31.7088 17.0239 31.8338 18.5614 31.5141 20.0641C30.8405 23.4356 28.5006 26.4466 25.3529 28.1003C23.3937 29.1412 21.1451 29.6525 18.9056 29.6294C18.1896 29.6326 17.4705 29.6179 16.7545 29.6378C16.7545 28.3794 16.6996 27.1155 16.8489 25.8623C17.1963 22.831 18.9147 20.0089 21.3858 18.1022C22.9153 16.9513 24.7131 16.1171 26.6204 15.7276Z" fill="#81818B"/>
<path d="M44.2537 24.0118C44.2537 24.5235 44.0678 24.9563 43.6972 25.3107C43.346 25.6453 42.9024 25.8127 42.3663 25.8127C41.8503 25.8127 41.4171 25.6453 41.0664 25.3107C40.7157 24.9563 40.5404 24.5235 40.5404 24.0118V5.76816C40.5404 5.25644 40.7157 4.83334 41.0664 4.49881C41.4376 4.14454 41.8917 3.96741 42.4283 3.96741C42.9643 3.96741 43.3974 4.14454 43.7276 4.49881C44.0783 4.83334 44.2537 5.25644 44.2537 5.76816V24.0118Z" fill="#81818B"/>
<path d="M59.1595 10.019C59.6955 10.019 60.1391 10.1961 60.4904 10.5504C60.8405 10.8849 61.0159 11.3081 61.0159 11.8197V19.3179C61.0159 21.404 60.4074 23.0572 59.1905 24.2774C57.973 25.4976 56.2195 26.1074 53.9289 26.1074C51.6394 26.1074 49.8854 25.4976 48.6684 24.2774C47.4719 23.0572 46.8734 21.404 46.8734 19.3179V11.8197C46.8734 11.3081 47.0488 10.8849 47.3995 10.5504C47.7502 10.1961 48.1938 10.019 48.7304 10.019C49.2669 10.019 49.71 10.1961 50.0607 10.5504C50.4119 10.8849 50.5873 11.3081 50.5873 11.8197V19.3179C50.5873 20.5184 50.8661 21.4139 51.4226 22.0043C51.9796 22.575 52.8154 22.8603 53.9289 22.8603C55.0645 22.8603 55.9097 22.575 56.4673 22.0043C57.0238 21.4139 57.3026 20.5184 57.3026 19.3179V11.8197C57.3026 11.3081 57.4779 10.8849 57.8286 10.5504C58.1793 10.1961 58.6229 10.019 59.1595 10.019Z" fill="#81818B"/>
<path d="M72.1853 9.72388C73.8359 9.72388 75.0528 10.1076 75.8372 10.8752C76.621 11.623 77.1371 12.5971 77.3843 13.7977L76.8583 13.532L77.1061 13.0597C77.3534 12.607 77.735 12.1249 78.2511 11.6131C78.7667 11.0818 79.3856 10.639 80.1075 10.2847C80.8504 9.91078 81.6757 9.72388 82.5834 9.72388C84.0692 9.72388 85.1932 10.0289 85.9565 10.639C86.7409 11.2491 87.2769 12.0658 87.5657 13.0892C87.8549 14.0929 87.9993 15.2146 87.9993 16.4545V24.0117C87.9993 24.5234 87.824 24.9562 87.4727 25.3106C87.122 25.6453 86.6789 25.8126 86.1424 25.8126C85.6064 25.8126 85.1622 25.6453 84.8115 25.3106C84.4608 24.9562 84.2855 24.5234 84.2855 24.0117V16.4545C84.2855 15.805 84.203 15.2245 84.0382 14.7127C83.8728 14.1814 83.5736 13.7583 83.1404 13.4434C82.7073 13.1285 82.0883 12.9711 81.284 12.9711C80.4997 12.9711 79.8293 13.1285 79.2722 13.4434C78.7147 13.7583 78.2921 14.1814 78.0033 14.7127C77.735 15.2245 77.6006 15.805 77.6006 16.4545V24.0117C77.6006 24.5234 77.4253 24.9562 77.0751 25.3106C76.7244 25.6453 76.2803 25.8126 75.7442 25.8126C75.2077 25.8126 74.7641 25.6453 74.4139 25.3106C74.0627 24.9562 73.8873 24.5234 73.8873 24.0117V16.4545C73.8873 15.805 73.8049 15.2245 73.6395 14.7127C73.4747 14.1814 73.1754 13.7583 72.7423 13.4434C72.3092 13.1285 71.6897 12.9711 70.8854 12.9711C70.1015 12.9711 69.4311 13.1285 68.8736 13.4434C68.3171 13.7583 67.8939 14.1814 67.6052 14.7127C67.3369 15.2245 67.203 15.805 67.203 16.4545V24.0117C67.203 24.5234 67.0277 24.9562 66.677 25.3106C66.3257 25.6453 65.8826 25.8126 65.3461 25.8126C64.8095 25.8126 64.3664 25.6453 64.0152 25.3106C63.6645 24.9562 63.4892 24.5234 63.4892 24.0117V11.8198C63.4892 11.3081 63.6645 10.885 64.0152 10.5504C64.3664 10.1962 64.8095 10.0191 65.3461 10.0191C65.8826 10.0191 66.3257 10.1962 66.677 10.5504C67.0277 10.885 67.203 11.3081 67.203 11.8198V13.0892L66.7384 13.0006C66.9242 12.666 67.1825 12.3118 67.5122 11.9379C67.8425 11.5443 68.2446 11.1802 68.7192 10.8456C69.1938 10.5111 69.7199 10.2454 70.2974 10.0485C70.8754 9.83208 71.5049 9.72388 72.1853 9.72388Z" fill="#81818B"/>
<path d="M93.968 24.0117C93.968 24.5234 93.7927 24.9562 93.4415 25.3106C93.0913 25.6453 92.6477 25.8126 92.1111 25.8126C91.5751 25.8126 91.1309 25.6453 90.7802 25.3106C90.4301 24.9562 90.2547 24.5234 90.2547 24.0117V11.8198C90.2547 11.3081 90.4301 10.885 90.7802 10.5504C91.1309 10.1962 91.5751 10.0191 92.1111 10.0191C92.6477 10.0191 93.0913 10.1962 93.4415 10.5504C93.7927 10.885 93.968 11.3081 93.968 11.8198V24.0117ZM92.0801 8.10021C91.3787 8.10021 90.8837 7.99201 90.5944 7.7755C90.3062 7.55904 90.1618 7.17527 90.1618 6.62423V6.06332C90.1618 5.49264 90.3167 5.10881 90.6254 4.91204C90.9556 4.69553 91.4512 4.58728 92.1111 4.58728C92.8335 4.58728 93.3391 4.69553 93.6273 4.91204C93.9166 5.1285 94.0609 5.51228 94.0609 6.06332V6.62423C94.0609 7.19495 93.9061 7.58855 93.5963 7.805C93.2876 8.00183 92.7815 8.10021 92.0801 8.10021Z" fill="#81818B"/>
<path d="M105.088 9.72388C106.615 9.72388 107.77 10.0289 108.554 10.639C109.359 11.2491 109.905 12.0658 110.194 13.0892C110.504 14.0929 110.658 15.2146 110.658 16.4545V24.0117C110.658 24.5234 110.483 24.9562 110.132 25.3106C109.782 25.6453 109.338 25.8126 108.801 25.8126C108.265 25.8126 107.822 25.6453 107.471 25.3106C107.12 24.9562 106.944 24.5234 106.944 24.0117V16.4545C106.944 15.805 106.852 15.2245 106.667 14.7127C106.501 14.1814 106.192 13.7583 105.737 13.4434C105.284 13.1285 104.634 12.9711 103.788 12.9711C102.963 12.9711 102.261 13.1285 101.684 13.4434C101.127 13.7583 100.694 14.1814 100.384 14.7127C100.095 15.2245 99.9504 15.805 99.9504 16.4545V24.0117C99.9504 24.5234 99.7756 24.9562 99.4249 25.3106C99.0742 25.6453 98.63 25.8126 98.094 25.8126C97.5575 25.8126 97.1138 25.6453 96.7637 25.3106C96.4124 24.9562 96.2371 24.5234 96.2371 24.0117V11.8198C96.2371 11.3081 96.4124 10.885 96.7637 10.5504C97.1138 10.1962 97.5575 10.0191 98.094 10.0191C98.63 10.0191 99.0742 10.1962 99.4249 10.5504C99.7756 10.885 99.9504 11.3081 99.9504 11.8198V13.0892L99.4868 13.0006C99.6727 12.666 99.9404 12.3118 100.291 11.9379C100.642 11.5443 101.055 11.1802 101.529 10.8456C102.004 10.5111 102.54 10.2454 103.138 10.0485C103.737 9.83208 104.387 9.72388 105.088 9.72388Z" fill="#81818B"/>
<path d="M129.032 17.9305C129.032 19.5443 128.65 20.9711 127.887 22.2109C127.144 23.4312 126.133 24.3856 124.854 25.0744C123.595 25.7634 122.182 26.1074 120.614 26.1074C119.046 26.1074 117.622 25.7634 116.344 25.0744C115.085 24.3856 114.074 23.4312 113.311 22.2109C112.568 20.9711 112.197 19.5443 112.197 17.9305C112.197 16.3167 112.568 14.8997 113.311 13.6795C114.074 12.4397 115.085 11.4754 116.344 10.7866C117.622 10.0781 119.046 9.72388 120.614 9.72388C122.182 9.72388 123.595 10.0781 124.854 10.7866C126.133 11.4754 127.144 12.4397 127.887 13.6795C128.65 14.8997 129.032 16.3167 129.032 17.9305ZM125.318 17.9305C125.318 16.9268 125.102 16.0609 124.668 15.3327C124.255 14.5849 123.688 14.0043 122.966 13.591C122.265 13.1777 121.481 12.9711 120.614 12.9711C119.748 12.9711 118.953 13.1777 118.231 13.591C117.529 14.0043 116.962 14.5849 116.529 15.3327C116.117 16.0609 115.91 16.9268 115.91 17.9305C115.91 18.9145 116.117 19.7804 116.529 20.5283C116.962 21.2564 117.529 21.8272 118.231 22.2405C118.953 22.6538 119.748 22.8604 120.614 22.8604C121.481 22.8604 122.265 22.6538 122.966 22.2405C123.688 21.8272 124.255 21.2564 124.668 20.5283C125.102 19.7804 125.318 18.9145 125.318 17.9305Z" fill="#81818B"/>
<path d="M142.873 10.019C143.409 10.019 143.853 10.1961 144.204 10.5504C144.554 10.8849 144.73 11.3081 144.73 11.8197V19.3179C144.73 21.404 144.121 23.0572 142.904 24.2774C141.686 25.4976 139.933 26.1074 137.643 26.1074C135.353 26.1074 133.599 25.4976 132.382 24.2774C131.185 23.0572 130.587 21.404 130.587 19.3179V11.8197C130.587 11.3081 130.762 10.8849 131.113 10.5504C131.464 10.1961 131.907 10.019 132.444 10.019C132.98 10.019 133.424 10.1961 133.775 10.5504C134.125 10.8849 134.301 11.3081 134.301 11.8197V19.3179C134.301 20.5184 134.579 21.4139 135.136 22.0043C135.693 22.575 136.529 22.8603 137.643 22.8603C138.777 22.8603 139.624 22.575 140.18 22.0043C140.738 21.4139 141.016 20.5184 141.016 19.3179V11.8197C141.016 11.3081 141.192 10.8849 141.542 10.5504C141.893 10.1961 142.337 10.019 142.873 10.019Z" fill="#81818B"/>
<path d="M146.243 23.3623C146.037 23.0868 145.944 22.7325 145.965 22.2995C145.986 21.8665 146.254 21.4926 146.77 21.1778C147.1 20.9809 147.45 20.9022 147.822 20.9416C148.193 20.9613 148.554 21.1384 148.905 21.473C149.504 22.0436 150.133 22.4865 150.793 22.8014C151.453 23.1162 152.278 23.2737 153.268 23.2737C153.578 23.254 153.918 23.2146 154.289 23.1556C154.661 23.0769 154.981 22.9194 155.249 22.6833C155.537 22.4275 155.682 22.0436 155.682 21.532C155.682 21.0991 155.527 20.7546 155.218 20.4988C154.908 20.2429 154.496 20.0265 153.98 19.8493C153.485 19.6722 152.928 19.5049 152.309 19.3475C151.669 19.1704 151.009 18.9736 150.328 18.7571C149.668 18.5406 149.059 18.2651 148.502 17.9305C147.946 17.5762 147.492 17.1138 147.141 16.543C146.79 15.9723 146.615 15.254 146.615 14.3881C146.615 13.404 146.903 12.5676 147.481 11.8788C148.059 11.19 148.802 10.6587 149.709 10.2847C150.638 9.91078 151.607 9.72388 152.618 9.72388C153.258 9.72388 153.928 9.80257 154.63 9.96002C155.331 10.0978 156.002 10.3339 156.641 10.6685C157.281 10.9834 157.817 11.4065 158.251 11.9379C158.477 12.2331 158.612 12.5873 158.653 13.0006C158.694 13.4139 158.498 13.7878 158.065 14.1224C157.756 14.3585 157.395 14.4668 156.982 14.4471C156.57 14.4078 156.229 14.27 155.961 14.0339C155.61 13.6008 155.136 13.2564 154.537 13.0006C153.959 12.7448 153.289 12.6168 152.525 12.6168C152.216 12.6168 151.876 12.6562 151.504 12.7349C151.154 12.794 150.844 12.9416 150.576 13.1777C150.308 13.3942 150.173 13.7485 150.173 14.2405C150.173 14.6931 150.328 15.0572 150.638 15.3327C150.947 15.5885 151.36 15.805 151.876 15.9822C152.412 16.1396 152.98 16.2971 153.578 16.4545C154.197 16.6119 154.826 16.7989 155.465 17.0153C156.105 17.2319 156.693 17.5172 157.229 17.8715C157.766 18.2257 158.199 18.6882 158.529 19.2589C158.86 19.81 159.024 20.5185 159.024 21.3844C159.024 22.3881 158.715 23.2442 158.096 23.9526C157.477 24.6612 156.703 25.2023 155.775 25.5764C154.847 25.9307 153.897 26.1074 152.928 26.1074C151.711 26.1074 150.494 25.911 149.276 25.5173C148.059 25.1039 147.048 24.3856 146.243 23.3623Z" fill="#81818B"/>
</svg>
