<svg width="148" height="41" viewBox="0 0 148 41" fill="none" xmlns="http://www.w3.org/2000/svg">
<path d="M57.6049 17.5771C57.2583 16.9385 56.7565 16.4551 56.0997 16.1267C55.4611 15.7801 54.704 15.6067 53.8283 15.6067C52.3139 15.6067 51.1008 16.1085 50.1885 17.1119C49.2762 18.0971 48.8202 19.4198 48.8202 21.0801C48.8202 22.8497 49.2946 24.2364 50.2432 25.2398C51.2102 26.225 52.5329 26.7176 54.2114 26.7176C55.3608 26.7176 56.3278 26.4257 57.1123 25.8419C57.9151 25.258 58.4988 24.4188 58.8638 23.3241H52.9252V19.8759H63.1056V24.2272C62.759 25.3948 62.166 26.4805 61.3268 27.4839C60.5058 28.4873 59.4567 29.2992 58.1796 29.9195C56.9025 30.5398 55.4611 30.85 53.8556 30.85C51.9582 30.85 50.2614 30.4395 48.7654 29.6185C47.2876 28.7793 46.1291 27.6207 45.2899 26.1429C44.4688 24.6651 44.0583 22.9775 44.0583 21.0801C44.0583 19.1826 44.4688 17.495 45.2899 16.0172C46.1291 14.5212 47.2876 13.3626 48.7654 12.5416C50.2432 11.7024 51.9308 11.2828 53.8283 11.2828C56.1271 11.2828 58.061 11.8393 59.63 12.9521C61.2173 14.065 62.2664 15.6067 62.7772 17.5771H57.6049ZM70.3775 17.9876C70.9248 17.1484 71.609 16.4916 72.43 16.0172C73.251 15.5246 74.1632 15.2783 75.1666 15.2783V20.2317H73.8804C72.7128 20.2317 71.8371 20.4872 71.2532 20.998C70.6693 21.4906 70.3775 22.3663 70.3775 23.6252V30.7132H65.6978V15.4425H70.3775V17.9876ZM84.3546 30.9321C82.8585 30.9321 81.5085 30.6128 80.3043 29.9743C79.1184 29.3357 78.1788 28.4235 77.4856 27.2376C76.8104 26.0517 76.473 24.6651 76.473 23.0778C76.473 21.5088 76.8196 20.1314 77.5129 18.9455C78.2061 17.7413 79.1549 16.82 80.3591 16.1814C81.5632 15.5428 82.9132 15.2236 84.4093 15.2236C85.9054 15.2236 87.2555 15.5428 88.4596 16.1814C89.6638 16.82 90.6124 17.7413 91.3058 18.9455C91.999 20.1314 92.3457 21.5088 92.3457 23.0778C92.3457 24.6469 91.9899 26.0334 91.2784 27.2376C90.5851 28.4235 89.6272 29.3357 88.4049 29.9743C87.2007 30.6128 85.8506 30.9321 84.3546 30.9321ZM84.3546 26.8818C85.2486 26.8818 86.0057 26.5534 86.626 25.8966C87.2645 25.2398 87.5839 24.3002 87.5839 23.0778C87.5839 21.8555 87.2737 20.9159 86.6534 20.2591C86.0513 19.6023 85.3033 19.2739 84.4093 19.2739C83.4971 19.2739 82.74 19.6023 82.1379 20.2591C81.5358 20.8977 81.2348 21.8372 81.2348 23.0778C81.2348 24.3002 81.5267 25.2398 82.1105 25.8966C82.7126 26.5534 83.4606 26.8818 84.3546 26.8818ZM116.749 15.4425L112.616 30.7132H107.444L105.036 20.8064L102.546 30.7132H97.4009L93.2411 15.4425H97.9208L100.083 26.3618L102.655 15.4425H107.608L110.208 26.3071L112.343 15.4425H116.749ZM126.196 19.3286H123.679V30.7132H118.999V19.3286H117.302V15.4425H118.999V15.0046C118.999 13.1255 119.537 11.7024 120.614 10.7354C121.69 9.75023 123.268 9.25763 125.348 9.25763C125.694 9.25763 125.95 9.26676 126.114 9.285V13.2532C125.221 13.1984 124.591 13.3261 124.226 13.6363C123.861 13.9465 123.679 14.5029 123.679 15.3057V15.4425H126.196V19.3286ZM143.994 15.4425L134.416 37.9653H129.38L132.883 30.1932L126.671 15.4425H131.898L135.429 24.9935L138.931 15.4425H143.994Z" fill="white"/>
<path d="M23.1565 12.8195C23.1565 8.75027 26.4552 5.45154 30.5245 5.45154H37.8924V12.8195C37.8924 16.8887 34.5937 20.1875 30.5245 20.1875C26.4552 20.1875 23.1565 16.8887 23.1565 12.8195Z" fill="#FF6D35"/>
<path d="M30.5243 37.8646C26.4551 37.8646 23.1564 34.5659 23.1564 30.4966V23.1287H30.5243C34.5936 23.1287 37.8923 26.4274 37.8923 30.4966C37.8923 34.5659 34.5936 37.8646 30.5243 37.8646Z" fill="#5CC97B"/>
<path d="M20.8348 20.8397C20.8348 12.6629 14.7086 6.03442 7.15149 6.03442V30.2089C7.15149 34.2971 10.2146 37.6115 13.9933 37.6115C17.7718 37.6115 20.8348 34.2971 20.8348 30.2089V20.8397Z" fill="#3D96F4"/>
</svg>
