<svg width="137" height="33" viewBox="0 0 137 33" fill="none" xmlns="http://www.w3.org/2000/svg">
<path d="M50.6049 12.5771C50.2583 11.9385 49.7565 11.4551 49.0997 11.1267C48.4611 10.7801 47.704 10.6067 46.8283 10.6067C45.3139 10.6067 44.1008 11.1085 43.1885 12.1119C42.2762 13.0971 41.8202 14.4198 41.8202 16.0801C41.8202 17.8497 42.2946 19.2364 43.2432 20.2398C44.2102 21.225 45.5329 21.7176 47.2114 21.7176C48.3608 21.7176 49.3278 21.4257 50.1123 20.8419C50.9151 20.258 51.4988 19.4188 51.8638 18.3241H45.9252V14.8759H56.1056V19.2272C55.759 20.3948 55.166 21.4805 54.3268 22.4839C53.5058 23.4873 52.4567 24.2992 51.1796 24.9195C49.9025 25.5398 48.4611 25.85 46.8556 25.85C44.9582 25.85 43.2614 25.4395 41.7654 24.6185C40.2876 23.7793 39.1291 22.6207 38.2899 21.1429C37.4688 19.6651 37.0583 17.9775 37.0583 16.0801C37.0583 14.1826 37.4688 12.495 38.2899 11.0172C39.1291 9.5212 40.2876 8.36264 41.7654 7.54164C43.2432 6.70243 44.9308 6.28277 46.8283 6.28277C49.1271 6.28277 51.061 6.83926 52.63 7.95214C54.2173 9.06502 55.2664 10.6067 55.7772 12.5771H50.6049ZM63.3775 12.9876C63.9248 12.1484 64.609 11.4916 65.43 11.0172C66.251 10.5246 67.1632 10.2783 68.1666 10.2783V15.2317H66.8804C65.7128 15.2317 64.8371 15.4872 64.2532 15.998C63.6693 16.4906 63.3775 17.3663 63.3775 18.6252V25.7132H58.6978V10.4425H63.3775V12.9876ZM77.3546 25.9321C75.8585 25.9321 74.5085 25.6128 73.3043 24.9743C72.1184 24.3357 71.1788 23.4235 70.4856 22.2376C69.8104 21.0517 69.473 19.6651 69.473 18.0778C69.473 16.5088 69.8196 15.1314 70.5129 13.9455C71.2061 12.7413 72.1549 11.82 73.3591 11.1814C74.5632 10.5428 75.9132 10.2236 77.4093 10.2236C78.9054 10.2236 80.2555 10.5428 81.4596 11.1814C82.6638 11.82 83.6124 12.7413 84.3058 13.9455C84.999 15.1314 85.3457 16.5088 85.3457 18.0778C85.3457 19.6469 84.9899 21.0334 84.2784 22.2376C83.5851 23.4235 82.6272 24.3357 81.4049 24.9743C80.2007 25.6128 78.8506 25.9321 77.3546 25.9321ZM77.3546 21.8818C78.2486 21.8818 79.0057 21.5534 79.626 20.8966C80.2645 20.2398 80.5839 19.3002 80.5839 18.0778C80.5839 16.8555 80.2737 15.9159 79.6534 15.2591C79.0513 14.6023 78.3033 14.2739 77.4093 14.2739C76.4971 14.2739 75.74 14.6023 75.1379 15.2591C74.5358 15.8977 74.2348 16.8372 74.2348 18.0778C74.2348 19.3002 74.5267 20.2398 75.1105 20.8966C75.7126 21.5534 76.4606 21.8818 77.3546 21.8818ZM109.749 10.4425L105.616 25.7132H100.444L98.0362 15.8064L95.5458 25.7132H90.4009L86.2411 10.4425H90.9208L93.0828 21.3618L95.6553 10.4425H100.608L103.208 21.3071L105.343 10.4425H109.749ZM119.196 14.3286H116.679V25.7132H111.999V14.3286H110.302V10.4425H111.999V10.0046C111.999 8.1255 112.537 6.70243 113.614 5.73543C114.69 4.75023 116.268 4.25763 118.348 4.25763C118.694 4.25763 118.95 4.26676 119.114 4.285V8.25317C118.221 8.19844 117.591 8.32612 117.226 8.63631C116.861 8.9465 116.679 9.50289 116.679 10.3057V10.4425H119.196V14.3286ZM136.994 10.4425L127.416 32.9653H122.38L125.883 25.1932L119.671 10.4425H124.898L128.429 19.9935L131.931 10.4425H136.994Z" fill="white"/>
<path d="M16.1565 7.81951C16.1565 3.75027 19.4552 0.451538 23.5245 0.451538H30.8924V7.81951C30.8924 11.8887 27.5937 15.1875 23.5245 15.1875C19.4552 15.1875 16.1565 11.8887 16.1565 7.81951Z" fill="#FF6D35"/>
<path d="M23.5243 32.8646C19.4551 32.8646 16.1564 29.5659 16.1564 25.4966V18.1287H23.5243C27.5936 18.1287 30.8923 21.4274 30.8923 25.4966C30.8923 29.5659 27.5936 32.8646 23.5243 32.8646Z" fill="#5CC97B"/>
<path d="M13.8348 15.8397C13.8348 7.66289 7.70859 1.03442 0.151489 1.03442V25.2089C0.151489 29.2971 3.21461 32.6115 6.99327 32.6115C10.7718 32.6115 13.8348 29.2971 13.8348 25.2089V15.8397Z" fill="#3D96F4"/>
</svg>
